# xmcd
# Track frame offsets:
# 150
# 10002
# 20615
# 26533
# 36129
# 44530
# 53232
# 64956
# 74176
# 84760
# 92478
# 102531
#
# Disc length: 1500 seconds
# Revision: 1
# Processed by: cddbd v1.5.2PL0 Copyright (c) Steve Scherf et al.
# Submitted via: VisiTrax 2.11.3.279 - For more info visit www.synapsa.com
#
DISCID=9c05da0c
DTITLE=Johnny Cash - Greatest!
DYEAR=1959
DGENRE=Country
TTITLE0=Goodbye Little Darlin'
TTITLE1=I Just Thought You'd Like To Know
TTITLE2=You Tell Me
TTITLE3=Just About Time
TTITLE4=I Forgot To Rmember To Forget
TTITLE5=Katy, Too
TTITLE6=Thanks A Lot
TTITLE7=Luther's Boogie
TTITLE8=You Win Again
TTITLE9=Hey Good Lookin'
TTITLE10=I Could Never Be Ashamed Of You
TTITLE11=Get Rhythm
EXTD=Pickwick Group ltd.
EXTT0=
EXTT1=
EXTT2=
EXTT3=
EXTT4=
EXTT5=
EXTT6=
EXTT7=
EXTT8=
EXTT9=
EXTT10=
EXTT11=
PLAYORDER=
